<svg width="305" height="42" viewBox="0 0 305 42" fill="none" xmlns="http://www.w3.org/2000/svg">
<path d="M62.6672 33.7973V31.2669C64.1131 33.6889 66.8604 34.2311 68.4149 34.2311C73.0419 34.2311 76.9822 30.2908 76.9822 24.507C76.9822 18.9762 73.4396 14.7468 68.2341 14.7468C66.4628 14.7468 64.4385 15.3613 63.1732 17.2772V7.95075H56.8833V33.7973H62.6672ZM63.0287 24.4347C63.0287 21.832 64.6915 20.2414 66.8966 20.2414C68.9571 20.2414 70.6561 21.832 70.6561 24.4347C70.6561 27.0374 68.9571 28.7364 66.8966 28.7364C64.6915 28.7364 63.0287 27.0736 63.0287 24.4347Z" fill="#170F49"/>
<path d="M92.7994 14.8914C92.5102 14.7829 92.1125 14.7468 91.6426 14.7468C89.1844 14.7468 87.377 16.0843 86.401 18.3617V15.1806H80.1472V33.7973H86.4371V26.9651C86.4371 23.061 88.2084 20.6391 91.3895 20.6391C92.0402 20.6391 92.5102 20.7114 92.7994 20.856V14.8914Z" fill="#170F49"/>
<path d="M95.2211 33.7973H101.511V15.1806H95.2211V33.7973ZM94.968 9.97509C94.968 11.8548 96.414 13.2285 98.3299 13.2285C100.246 13.2285 101.728 11.8548 101.728 9.97509C101.728 8.09534 100.246 6.72168 98.3299 6.72168C96.414 6.72168 94.968 8.09534 94.968 9.97509Z" fill="#170F49"/>
<path d="M110.144 24.5793L103.745 33.7973H110.722L113.758 28.881L116.795 33.7973H123.772L117.373 24.5793L123.916 15.1806H116.759L113.758 20.3499L110.758 15.1806H103.601L110.144 24.5793Z" fill="#170F49"/>
<path d="M131.163 18.8316H133.549V26.2783C133.549 30.6162 136.007 33.002 140.056 33.002C141.899 33.002 143.309 32.6044 144.285 32.1345V26.8205C143.526 27.3628 142.622 27.5074 141.863 27.5074C140.706 27.5074 139.839 26.8205 139.839 25.23V18.8316H143.779V13.9515H139.839V8.92677H133.73V13.9515H131.163V18.8316Z" fill="#4A3AFF"/>
<path d="M163.622 24.76C163.803 24.1817 163.984 23.061 163.984 22.085C163.984 16.988 160.369 13.5177 155.055 13.5177C149.56 13.5177 145.367 17.7833 145.367 23.2779C145.367 28.7726 149.452 33.002 155.814 33.002C158.959 33.002 161.417 32.2067 163.875 30.0017L160.694 26.0253C159.791 26.8928 158.308 27.7604 156.284 27.7604C154.151 27.7604 152.127 26.8567 151.838 24.76H163.622ZM154.91 18.5063C156.537 18.5063 157.802 19.5184 157.911 21.109V21.1451H151.729C151.838 19.4461 153.284 18.5063 154.91 18.5063Z" fill="#4A3AFF"/>
<path d="M167.075 13.9515V32.5682H173.365V22.7718C173.365 20.4583 174.558 19.0124 176.33 19.0124C178.209 19.0124 179.222 20.1691 179.222 22.3381V32.5682H185.511V22.7718C185.511 20.4583 186.777 19.0124 188.476 19.0124C190.355 19.0124 191.368 20.1691 191.368 22.3381V32.5682H197.658V21.2174C197.658 16.4096 194.983 13.5177 190.464 13.5177C187.319 13.5177 185.62 14.9275 184.355 16.5542C183.089 14.566 181.065 13.5177 178.318 13.5177C176.113 13.5177 174.341 14.2768 173.076 16.1566V13.9515H167.075Z" fill="#4A3AFF"/>
<path d="M201.918 39.798H208.208V30.7608C209.401 32.4959 211.498 33.002 213.269 33.002C218.475 33.002 222.017 28.7726 222.017 23.2418C222.017 17.4579 217.968 13.5177 213.341 13.5177C211.823 13.5177 209.257 14.0599 207.702 16.4819V13.9515H201.918V39.798ZM208.064 23.3141C208.064 20.6752 209.727 19.0124 211.932 19.0124C213.992 19.0124 215.691 20.7114 215.691 23.3141C215.691 25.9168 213.992 27.5074 211.932 27.5074C209.727 27.5074 208.064 25.9168 208.064 23.3141Z" fill="#4A3AFF"/>
<path d="M224.965 27.0013C224.965 30.9054 227.207 33.002 231.111 33.002C232.376 33.002 233.352 32.7851 234.039 32.4598V27.3989C233.569 27.5797 233.135 27.6158 232.81 27.6158C231.364 27.6158 231.255 26.7121 231.255 25.8445V6.72168H224.965V27.0013Z" fill="#4A3AFF"/>
<path d="M241.815 33.002C244.273 33.002 245.9 31.9176 246.623 30.5077V32.5682H252.443V20.9282C252.443 16.3012 249.262 13.5177 243.876 13.5177C240.225 13.5177 237.224 15.1083 235.634 17.1326L238.923 21.0728C239.899 19.9522 241.418 18.8678 243.55 18.8678C245.105 18.8678 246.442 19.41 246.442 20.9644V21.0005L241.635 21.9404C237.73 22.7719 235.561 24.6516 235.561 27.3989C235.561 30.6885 238.2 33.002 241.815 33.002ZM246.442 24.7962V25.0854C246.442 27.1459 245.286 28.4834 243.297 28.4834C242.177 28.4834 241.562 27.905 241.562 27.0013C241.562 26.0976 242.285 25.6276 243.406 25.3746L246.442 24.7962Z" fill="#4A3AFF"/>
<path d="M254.684 18.8316H257.07V26.2783C257.07 30.6162 259.528 33.002 263.577 33.002C265.42 33.002 266.83 32.6044 267.806 32.1345V26.8205C267.047 27.3628 266.143 27.5074 265.384 27.5074C264.227 27.5074 263.36 26.8205 263.36 25.23V18.8316H267.3V13.9515H263.36V8.92677H257.251V13.9515H254.684V18.8316Z" fill="#4A3AFF"/>
<path d="M287.143 24.76C287.324 24.1817 287.505 23.061 287.505 22.085C287.505 16.988 283.89 13.5177 278.576 13.5177C273.081 13.5177 268.888 17.7833 268.888 23.2779C268.888 28.7726 272.973 33.002 279.335 33.002C282.48 33.002 284.938 32.2067 287.396 30.0017L284.215 26.0253C283.312 26.8928 281.829 27.7604 279.805 27.7604C277.672 27.7604 275.648 26.8567 275.359 24.76H287.143ZM278.431 18.5063C280.058 18.5063 281.323 19.5184 281.432 21.109V21.1451H275.25C275.359 19.4461 276.805 18.5063 278.431 18.5063Z" fill="#4A3AFF"/>
<path d="M297.031 33.002C301.658 33.002 304.767 30.4354 304.767 27.1097C304.767 23.4225 301.911 22.4465 298.983 21.2897C296.344 20.1691 295.223 19.9884 295.223 19.3015C295.223 18.6147 296.055 18.2171 297.031 18.2171C298.766 18.2171 299.742 19.0485 300.357 20.0968L304.261 17.2772C303.104 15.0721 300.393 13.5177 297.212 13.5177C293.018 13.5177 289.512 15.542 289.512 19.2654C289.512 22.2658 291.572 23.7479 295.223 25.0492C297.79 25.953 299.055 26.2783 299.055 27.2543C299.055 27.9412 298.368 28.3027 297.103 28.3027C295.223 28.3027 293.778 27.1459 292.91 25.6638L288.897 28.7364C290.452 31.4838 293.561 33.002 297.031 33.002Z" fill="#4A3AFF"/>
<path fill-rule="evenodd" clip-rule="evenodd" d="M34.8602 12.4114C38.1018 12.4114 40.7297 9.7835 40.7297 6.54186C40.7297 3.30023 38.1018 0.672363 34.8602 0.672363C31.6185 0.672363 28.9907 3.30023 28.9907 6.54186C28.9907 9.7835 31.6185 12.4114 34.8602 12.4114Z" fill="#8055FA"/>
<path fill-rule="evenodd" clip-rule="evenodd" d="M34.86 26.4943C38.1016 26.4943 40.7295 23.8667 40.7295 20.6255C40.7295 17.3843 38.1016 14.7568 34.86 14.7568C31.6184 14.7568 28.9905 17.3843 28.9905 20.6255C28.9905 23.8667 31.6184 26.4943 34.86 26.4943Z" fill="#7550FB"/>
<path fill-rule="evenodd" clip-rule="evenodd" d="M34.86 41.1028C38.1016 41.1028 40.7295 38.4749 40.7295 35.2333C40.7295 31.9916 38.1016 29.3638 34.86 29.3638C31.6184 29.3638 28.9905 31.9916 28.9905 35.2333C28.9905 38.4749 31.6184 41.1028 34.86 41.1028Z" fill="#6A4AFC"/>
<path d="M20.2527 26.4943C23.4939 26.4943 26.1214 23.8667 26.1214 20.6255C26.1214 17.3843 23.4939 14.7568 20.2527 14.7568C17.0115 14.7568 14.384 17.3843 14.384 20.6255C14.384 23.8667 17.0115 26.4943 20.2527 26.4943Z" fill="#6045FD"/>
<path fill-rule="evenodd" clip-rule="evenodd" d="M20.2521 41.1028C23.4933 41.1028 26.1208 38.4749 26.1208 35.2333C26.1208 31.9916 23.4933 29.3638 20.2521 29.3638C17.0109 29.3638 14.3834 31.9916 14.3834 35.2333C14.3834 38.4749 17.0109 41.1028 20.2521 41.1028Z" fill="#553FFE"/>
<path fill-rule="evenodd" clip-rule="evenodd" d="M6.16833 41.1023C9.40996 41.1023 12.0378 38.4744 12.0378 35.2328C12.0378 31.9911 9.40996 29.3633 6.16833 29.3633C2.92669 29.3633 0.298828 31.9911 0.298828 35.2328C0.298828 38.4744 2.92669 41.1023 6.16833 41.1023Z" fill="#4A3AFF"/>
</svg>
