<svg width="68" height="68" viewBox="0 0 68 68" fill="none" xmlns="http://www.w3.org/2000/svg">
<circle opacity="0.15" cx="34.0924" cy="34.1246" r="33.3209" fill="#4A3AFF"/>
<g filter="url(#filter0_d_1_5)">
<path d="M20.8203 30.1795L44.7841 23.4019V44.7032L21.304 37.2599L20.8203 30.1795Z" fill="#E4E2FF"/>
</g>
<path d="M52.257 32.7659C52.2507 31.6687 51.9065 30.6001 51.2712 29.7054C50.6359 28.8108 49.7404 28.1336 48.7066 27.766C48.5048 27.6931 48.2885 27.6699 48.0759 27.6983C47.8633 27.7267 47.6606 27.806 47.4852 27.9293C47.3097 28.0527 47.1665 28.2165 47.0678 28.407C46.9691 28.5974 46.9177 28.8088 46.918 29.0234L46.9367 39.2314C46.9372 39.4454 46.9892 39.6562 47.0883 39.846C47.1874 40.0357 47.3307 40.1988 47.506 40.3216C47.6814 40.4443 47.8837 40.5231 48.0959 40.5513C48.3081 40.5794 48.524 40.5561 48.7253 40.4833C49.7612 40.1107 50.6566 39.4269 51.2888 38.5256C51.921 37.6243 52.2592 36.5497 52.257 35.4487V32.7659Z" fill="#4A3AFF"/>
<path d="M45.7931 21.3689C45.7931 21.0389 45.662 20.7224 45.4286 20.489C45.1952 20.2556 44.8787 20.1245 44.5487 20.1245C44.2187 20.1245 43.9022 20.2556 43.6688 20.489C43.4354 20.7224 43.3043 21.0389 43.3043 21.3689V22.3321L20.7137 29.6254C20.5885 29.6659 20.4794 29.7451 20.402 29.8515C20.3247 29.958 20.283 30.0862 20.2831 30.2178V37.6306C20.2831 37.763 20.3253 37.8919 20.4037 37.9987C20.482 38.1054 20.5923 38.1844 20.7186 38.2242L22.3364 38.7319C22.4627 38.7716 22.573 38.8506 22.6513 38.9573C22.7297 39.0641 22.7719 39.193 22.7719 39.3254V42.5496C22.7801 44.03 23.3735 45.447 24.4226 46.4914C25.4717 47.5358 26.8913 48.1229 28.3716 48.1245H28.3978C29.8815 48.116 31.3014 47.5195 32.3462 46.4659C33.3909 45.4122 33.9754 43.9874 33.9714 42.5036V42.3792L43.3043 45.3035V46.2567C43.3043 46.5867 43.4354 46.9032 43.6688 47.1366C43.9022 47.37 44.2187 47.5011 44.5487 47.5011C44.8787 47.5011 45.1952 47.37 45.4286 47.1366C45.662 46.9032 45.7931 46.5867 45.7931 46.2567V21.3689ZM31.4826 42.5098C31.4846 42.9184 31.4061 43.3233 31.2515 43.7015C31.097 44.0797 30.8695 44.4237 30.582 44.714C30.2945 45.0043 29.9527 45.2351 29.576 45.3932C29.1993 45.5514 28.7951 45.6338 28.3866 45.6357H28.3716C27.55 45.6357 26.7617 45.3107 26.1789 44.7316C25.596 44.1525 25.2659 43.3663 25.2607 42.5447V40.4952C25.2607 40.3975 25.2837 40.3011 25.3278 40.214C25.3719 40.1268 25.436 40.0513 25.5148 39.9935C25.5935 39.9357 25.6848 39.8973 25.7812 39.8813C25.8775 39.8653 25.9763 39.8723 26.0695 39.9016L31.0471 41.4621C31.1734 41.5018 31.2837 41.5808 31.3621 41.6875C31.4404 41.7943 31.4826 41.9232 31.4826 42.0556V42.5098Z" fill="#4A3AFF"/>
<path d="M20.2821 29.6432C20.2821 29.309 20.1371 28.9886 19.8792 28.7523C19.6213 28.516 19.2714 28.3833 18.9067 28.3833C18.5419 28.3833 18.192 28.516 17.9341 28.7523C17.6762 28.9886 17.5312 29.309 17.5312 29.6432L17.5381 38.4623C17.5381 38.6278 17.5737 38.7916 17.6428 38.9445C17.7119 39.0973 17.8133 39.2362 17.941 39.3532C18.0687 39.4702 18.2203 39.563 18.3872 39.6263C18.5541 39.6896 18.7329 39.7222 18.9135 39.7222H18.9067C19.2658 39.7223 19.6107 39.5937 19.8677 39.364C20.1247 39.1342 20.2734 38.8214 20.2821 38.4926V29.6432Z" fill="white"/>
<defs>
<filter id="filter0_d_1_5" x="5.82031" y="8.40186" width="53.9638" height="51.3013" filterUnits="userSpaceOnUse" color-interpolation-filters="sRGB">
<feFlood flood-opacity="0" result="BackgroundImageFix"/>
<feColorMatrix in="SourceAlpha" type="matrix" values="0 0 0 0 0 0 0 0 0 0 0 0 0 0 0 0 0 0 127 0" result="hardAlpha"/>
<feOffset/>
<feGaussianBlur stdDeviation="7.5"/>
<feColorMatrix type="matrix" values="0 0 0 0 0.290196 0 0 0 0 0.227451 0 0 0 0 1 0 0 0 0.6 0"/>
<feBlend mode="normal" in2="BackgroundImageFix" result="effect1_dropShadow_1_5"/>
<feBlend mode="normal" in="SourceGraphic" in2="effect1_dropShadow_1_5" result="shape"/>
</filter>
</defs>
</svg>
